<svg width="164" height="66" viewBox="0 0 164 66" fill="none" xmlns="http://www.w3.org/2000/svg">
<path d="M96.7485 56.5574C97.5232 56.5574 98.3474 56.5087 99.155 56.5574C100.457 56.6711 101.743 56.6549 103.012 56.33C108.254 55.0143 109.869 50.45 108.666 46.1456C108.517 45.5934 108.303 45.0411 108.188 44.4889C107.973 43.5305 108.155 43.1244 109.028 42.6696C109.49 42.4259 110.034 42.296 110.545 42.1336C112.209 41.5976 113.891 41.1103 115.522 40.493C117.467 39.7459 119.017 38.414 120.368 36.8709C121.704 35.3278 122.758 33.606 123.649 31.7705C124.275 30.4711 124.192 29.1392 124.044 27.7748C123.978 27.2387 123.896 26.7027 123.912 26.1829C123.962 25.2246 124.456 24.5586 125.412 24.2663C125.692 24.185 125.973 24.1038 126.269 24.0551C128.758 23.7627 131.247 23.5191 133.769 23.7627C138.087 24.1688 142.422 24.5749 146.741 24.8997C149.658 25.1271 152.609 25.1596 155.477 24.5262C157.142 24.1526 158.773 23.5841 160.339 22.9181C162.812 21.8786 163.702 19.7507 163.982 17.2818C163.982 17.233 163.982 17.2005 163.982 17.1518C164.213 13.4646 162.218 10.6546 158.559 9.63127C154.801 8.57547 150.928 8.18565 147.087 7.7146C143.28 7.24355 139.439 6.96742 135.632 6.49637C131.989 6.05781 128.363 5.45681 124.72 4.96952C121.407 4.53096 118.077 4.18988 114.781 3.71883C106.803 2.54933 98.7924 2.5493 90.7653 2.92289C85.9193 3.15029 81.0734 3.2153 76.2604 2.45187C72.1726 1.80215 68.0849 2.30567 63.9972 2.33816C59.3325 2.37064 54.9481 3.70257 50.4648 4.72589C45.9979 5.7492 41.8442 7.60088 37.5422 9.06275C35.8445 9.6475 34.0808 10.0049 32.3501 10.4921C31.46 10.7358 30.8007 10.3785 30.2403 9.76124C29.581 9.04654 29.2184 8.18565 29.07 7.21107C28.9382 6.36643 28.7074 5.52181 28.4931 4.69342C28.1635 3.41022 27.3229 2.64677 26.0042 2.38689C23.3011 1.85087 20.5979 1.29858 17.8947 0.795051C16.4936 0.535162 15.0761 0.388986 13.6916 0.0966114C11.2027 -0.423166 9.55439 1.23364 9.32363 3.16657C8.82914 7.22732 7.8072 11.1743 6.70285 15.1052C5.82926 18.2401 5.2194 21.44 4.5436 24.6236C3.91725 27.6123 3.27442 30.5848 2.76345 33.5897C2.45028 35.4577 2.25248 37.3581 2.25248 39.2423C2.26897 44.5538 1.64262 49.7516 0.291027 54.8844C0.142682 55.4366 0.0767427 56.0214 0.0272942 56.5899C-0.186983 58.669 0.867916 60.1471 2.92827 60.6506C3.62055 60.8131 4.31284 60.9593 5.0216 61.0243C7.8072 61.3004 10.5928 61.5765 13.3784 61.8201C15.7519 62.0151 17.8288 61.3491 19.5924 59.7248C20.499 58.8801 21.4879 58.1005 22.411 57.2721C23.7131 56.1026 25.1636 55.7778 26.7954 56.5087C28.2789 57.1747 29.7788 57.7919 31.2293 58.4903C34.8555 60.2283 38.6795 61.1704 42.6684 61.4465C47.7616 61.8039 52.8548 61.8039 57.948 61.5115C60.4533 61.3653 62.9587 61.2679 65.4641 61.1542C65.7114 61.1542 65.9751 61.1542 66.2058 61.073C68.3981 60.4233 70.3925 61.1055 72.4034 61.8851C75.0077 62.8922 77.612 63.8993 80.2822 64.7114C83.4798 65.7022 86.7764 66.2383 90.1719 65.8972C92.2817 65.686 94.0289 64.8414 95.364 63.2495C96.1387 62.3237 96.6496 61.2191 96.7156 59.9847C96.765 58.8964 96.7156 57.7919 96.7156 56.5087L96.7485 56.5574ZM49.2945 59.5461C45.5529 59.5136 41.8607 59.3187 38.218 58.3279C33.8171 57.1422 29.8942 54.9331 26.0042 52.6916C25.724 52.5291 25.4768 52.2855 25.279 52.0256C23.1197 49.1831 21.9165 46.0969 22.6253 42.4422C23.0538 40.2656 23.2516 38.0403 23.5318 35.8313C23.9604 32.4365 24.29 29.0417 25.1966 25.7281C25.8064 23.4703 26.2844 21.1638 26.8284 18.8736C27.0097 18.0776 27.224 17.2655 27.3723 16.4696C27.5042 15.7549 27.9162 15.2514 28.5591 14.9915C29.9766 14.4067 31.3776 13.7083 32.8611 13.3509C36.9159 12.3439 40.8553 10.9957 44.8111 9.63127C47.6132 8.67293 50.4318 7.6821 53.3163 7.09735C57.9809 6.13901 62.6785 5.45682 67.4585 5.22942C70.0463 5.11571 72.5517 5.24564 75.0077 6.02531C77.3977 6.77249 79.7218 7.69838 82.0953 8.49429C85.8699 9.745 89.529 11.2231 93.0234 13.091C95.6936 14.5204 97.688 16.6483 99.6825 18.8248C99.8143 18.971 99.9297 19.1497 100.045 19.3284C100.309 19.7994 100.325 20.2867 100.045 20.7415C99.8308 21.0988 99.5836 21.44 99.3034 21.7323C97.3914 23.6328 96.3859 25.8093 97.0287 28.5544C97.2265 29.4153 96.6991 29.8701 95.7925 29.7564C95.4629 29.7077 95.1167 29.6427 94.8365 29.4803C93.5673 28.7656 92.2652 28.0996 91.0949 27.255C89.9576 26.4266 88.7873 25.7931 87.4028 25.5007C86.7929 25.3708 86.1995 25.1759 85.5732 25.0459C83.7271 24.6724 82.2931 23.649 81.1723 22.1872C80.6778 21.5374 80.2987 20.7902 79.8701 20.0918C79.5899 19.637 79.3262 19.166 78.9965 18.7436C78.6009 18.2563 78.0405 18.2563 77.5131 18.4837C76.9032 18.7436 76.9856 19.2634 77.134 19.7507C77.2988 20.303 77.5296 20.839 77.7109 21.3913C78.024 22.3658 78.3537 23.3566 78.5845 24.3475C78.7822 25.2083 78.6998 26.0692 78.2218 26.8489C77.068 28.7331 74.6615 29.5453 72.5352 28.7493C70.4914 27.9859 69.0409 26.524 67.7717 24.8672C66.0245 22.6095 64.3268 20.303 62.6126 18.0289C62.4807 17.8665 62.3489 17.7041 62.2005 17.5741C61.7225 17.2005 61.0467 17.1518 60.7006 17.4767C60.2885 17.8665 60.4204 18.3051 60.6182 18.7274C60.7665 19.0198 60.8984 19.3284 61.0797 19.6045C62.1676 21.2126 63.2225 22.8369 64.3598 24.4287C65.2169 25.6144 65.9916 26.8164 66.2553 28.2783C66.8157 31.3482 64.8707 33.7847 61.739 33.9634C61.3269 33.9796 60.8984 33.9958 60.4863 33.9633C57.4535 33.7522 54.4041 33.7197 51.4537 32.7289C47.6627 31.4619 43.8057 30.3737 39.9817 29.2042C38.3004 28.6844 36.6357 28.1483 34.9544 27.6448C33.9654 27.3524 33.0919 27.9534 33.1578 28.8793C33.2072 29.5777 33.7512 29.8376 34.3116 30.0325C37.262 31.0558 40.1959 32.1929 43.1958 33.0537C46.8056 34.0771 50.4812 34.873 54.1404 35.7014C55.3107 35.9613 56.5304 36.0587 57.7337 36.1886C59.0193 36.3186 60.305 36.3998 61.6071 36.5297C62.2664 36.5947 62.5961 36.9521 62.5467 37.4556C62.4972 38.0566 62.0687 38.1541 61.5742 38.1866C59.86 38.2678 58.1457 38.4464 56.448 38.4302C52.9866 38.3815 49.5087 38.284 46.0474 38.1216C43.7562 38.0241 41.4486 37.9266 39.2399 37.2444C38.0861 36.8871 36.9159 36.546 35.7456 36.2698C35.4159 36.1886 35.0368 36.3348 34.6907 36.3835C34.7731 36.7571 34.7731 37.1957 34.9709 37.5043C35.795 38.755 37.0642 39.4048 38.4982 39.6484C44.3002 40.6555 50.1351 41.5001 56.0689 41.2077C57.1897 41.159 58.3271 41.159 59.4479 41.2402C61.3104 41.3864 61.6401 41.9387 60.9478 43.628C60.9149 43.7092 60.8819 43.7741 60.8489 43.8554C59.9588 46.0319 60.2226 48.0623 61.772 49.8653C62.4972 50.7099 63.2719 51.5383 64.096 52.2692C65.4641 53.4875 66.8981 54.6245 68.2827 55.8103C68.9914 56.4112 69.1892 57.1746 68.9255 57.9218C68.6453 58.7177 67.953 58.7665 67.2937 58.7827C65.6619 58.8477 64.0301 58.8801 62.4148 58.9126C61.1621 58.9451 59.9094 58.9127 58.6567 58.9939C55.525 59.1725 52.4097 59.4 49.278 59.6111L49.2945 59.5461ZM114.55 21.375C112.638 21.2288 111.105 21.0989 109.572 20.9689C106.968 20.774 104.545 20.0756 102.567 18.3376C101.43 17.3305 100.441 16.1448 99.3693 15.0402C97.9188 13.5459 96.3694 12.1814 94.4739 11.2231C91.7542 9.85869 88.9686 8.65671 85.9852 7.92577C85.4248 7.77958 84.8644 7.60088 84.337 7.34099C84.1062 7.22729 83.8095 6.86997 83.859 6.70754C83.9249 6.44765 84.2216 6.13901 84.4853 6.07404C85.3424 5.87912 86.216 5.6842 87.0731 5.66796C88.7379 5.61923 90.4026 5.71669 92.0839 5.71669C99.4847 5.76542 106.853 6.2365 114.187 7.27606C115.984 7.53595 117.698 7.86077 119.198 9.01402C120.385 9.92363 121.704 9.87493 123.121 9.33891C124.11 8.96532 125.198 8.73789 126.269 8.65667C127.505 8.57546 128.791 8.5755 130.011 8.80291C132.368 9.22523 134.807 9.38765 136.752 11.1257C137.939 12.1814 139.307 12.2302 140.659 11.2881C141.78 10.5084 143.032 10.3297 144.367 10.5896C145.109 10.7358 145.851 10.8657 146.576 11.0119C148.62 11.4343 150.664 11.8566 152.708 12.2789C154.059 12.555 155.394 12.8799 156.548 13.692C157.768 14.5367 158.378 15.6412 158.361 17.1355C158.328 18.8411 157.405 19.8969 155.988 20.6278C154.34 21.4725 152.543 21.9597 150.697 21.9597C148.702 21.9597 146.691 21.7324 144.697 21.7486C142.703 21.7649 141.021 21.1476 139.505 19.9293C139.373 19.8319 139.241 19.7344 139.109 19.6207C138.434 19.036 137.675 18.9873 136.901 19.3933C136.307 19.702 135.763 20.108 135.17 20.3841C134.544 20.6765 133.868 21.0014 133.209 21.0664C132.22 21.1638 131.214 21.0177 130.225 20.9852C128.264 20.9202 126.302 20.8715 124.341 20.774C123.17 20.709 122.05 20.4816 121.028 19.7994C119.857 19.0198 119.099 19.1822 118.028 20.173C117.649 20.5141 117.154 20.8227 116.66 20.9689C115.869 21.1963 115.028 21.2775 114.55 21.3587L114.55 21.375ZM11.1367 46.8116C11.1367 48.176 11.1862 49.5241 11.1038 50.8886C11.0708 51.4733 10.8565 52.1068 10.5269 52.5941C9.85106 53.5849 8.7632 53.4063 8.33464 52.2855C8.20278 51.9444 8.1863 51.5545 8.1863 51.1972C8.16982 50.2876 8.15333 49.378 8.1863 48.4846C8.26871 46.6329 8.26871 44.7812 8.53244 42.9457C8.77968 41.1915 9.30712 39.486 9.68623 37.7642C9.86754 36.9196 9.99942 36.0587 10.1313 35.214C10.1972 34.7268 10.0983 34.272 9.5379 34.1583C9.02693 34.0608 8.79616 34.4019 8.64782 34.8405C8.61485 34.9542 8.5654 35.0679 8.53244 35.1978C7.88961 37.6668 7.23029 40.1357 7.08195 42.7021C7.01602 43.8554 6.95009 45.0086 6.88415 46.1456C6.83471 47.0227 6.50505 47.5588 5.89518 47.6725C5.3018 47.7862 4.79084 47.4288 4.5436 46.4867C4.3458 45.6908 4.21393 44.8462 4.27987 44.0503C4.77435 38.5114 5.25236 32.9725 6.37319 27.5149C7.24678 23.2917 8.31816 19.101 9.34009 14.894C9.83458 12.8474 10.395 10.8333 10.8895 8.78664C11.2521 7.32477 12.1916 6.33392 13.4443 5.5705C15.5541 4.2873 17.7299 5.1807 18.1914 7.58467C18.3727 8.54301 18.3892 9.56632 18.2573 10.5247C18.0101 12.5713 17.6474 14.6017 17.2848 16.6158C16.4936 21.0339 15.7189 25.452 14.3344 29.7564C13.8234 31.3645 13.263 32.9725 12.8509 34.5968C11.829 38.6088 11.2191 42.6696 11.1038 46.8116L11.1367 46.8116ZM99.0726 54.1047C98.677 54.1047 98.4627 54.1372 98.2485 54.1047C94.9024 53.6337 91.5399 53.4062 88.2599 52.4641C84.2545 51.3109 80.7602 49.313 77.4966 46.8116C77.2329 46.6167 77.0186 46.3568 76.8043 46.0969C76.3428 45.4959 76.4252 45.171 77.1504 44.8787C77.4142 44.765 77.7273 44.7487 77.9911 44.6188C78.8317 44.1965 79.7382 43.8229 80.4965 43.2544C81.6503 42.3772 82.3261 41.159 82.5568 39.6971C82.7546 38.4302 83.5128 38.1378 84.6172 38.8038C85.1116 39.0962 85.6061 39.421 86.1336 39.6647C88.3752 40.7367 90.7653 41.2889 93.2212 41.6138C96.3694 42.0361 99.5176 42.426 102.666 42.7996C103.968 42.9458 104.792 43.5955 105.303 44.765C105.962 46.3243 106.094 47.9648 105.946 49.6216C105.798 51.3434 103.836 53.7311 101.644 53.8935C100.721 53.9585 99.8143 54.0397 99.0891 54.0884L99.0726 54.1047ZM17.0046 44.1964C16.7903 44.6837 16.5925 45.0249 16.5101 45.3822C16.2794 46.6004 16.1145 47.8187 15.8673 49.0369C15.686 49.914 15.5212 50.8236 15.1915 51.652C14.8948 52.4317 14.0707 52.5129 13.6421 51.7982C13.296 51.2135 12.9993 50.4988 13.0158 49.849C13.2136 44.1477 13.8564 38.5276 15.7354 33.0862C16.7409 30.195 17.6145 27.2712 18.0101 24.25C18.521 20.3517 19.5759 16.5833 20.6308 12.8149C21.0099 11.4343 22.2461 10.9957 23.4659 11.7591C24.6691 12.5225 25.1801 13.692 25.0977 15.024C25.0318 16.0798 24.7186 17.1193 24.4878 18.1589C24.1252 19.7182 23.6966 21.2613 23.334 22.8369C23.0208 24.2013 22.7406 25.5657 22.4604 26.9463C22.0483 28.928 21.6528 30.8934 21.2737 32.875C21.0924 33.8009 20.977 34.743 20.8781 35.6851C20.5319 38.6738 20.2188 41.6463 19.8726 44.635C19.6089 46.9253 19.3287 49.1993 19.0485 51.4896C19.032 51.6845 18.9496 51.8956 18.8672 52.0743C18.6694 52.5454 18.3068 52.8053 17.7793 52.6753C17.3013 52.5616 17.1035 52.2043 17.1365 51.7495C17.1694 51.2135 17.2683 50.6937 17.3343 50.1577C17.4661 48.7608 17.631 47.3801 17.7299 45.9832C17.7628 45.4309 17.8123 44.8299 17.0211 44.1964L17.0046 44.1964ZM115.308 24.1038C116.017 24.1038 116.429 24.1525 116.841 24.1038C118.011 23.9576 118.72 24.5586 119.281 25.4682C120.352 27.2225 120.682 29.1229 120.006 31.0396C118.852 34.3045 116.742 36.8383 113.479 38.3002C111.105 39.356 108.616 40.0545 106.045 40.4443C104.528 40.6717 102.963 40.8666 101.446 40.7205C98.2979 40.4118 95.1662 39.8921 92.0344 39.4372C91.4575 39.356 90.8806 39.2098 90.3367 39.0312C89.562 38.7713 89.3148 38.0403 89.7268 37.3419C89.8752 37.0982 90.0895 36.9033 90.2873 36.6922C91.4246 35.4902 92.0674 34.1258 91.8861 32.4365C91.8366 31.9817 91.9026 31.5106 91.9191 30.9908C93.8475 31.5918 95.5947 32.1116 97.3254 32.6801C100.193 33.606 103.144 34.142 106.144 34.4182C109.028 34.678 111.715 34.1258 114.105 32.4365C116.577 30.666 117.187 28.3595 115.968 25.5982C115.786 25.1921 115.621 24.786 115.341 24.1201L115.308 24.1038ZM74.3319 47.6562C74.8099 47.8999 75.1066 48.0298 75.3868 48.2085C76.2933 48.7932 77.1999 49.3942 78.1064 49.979C80.892 51.7982 83.6776 53.6012 86.9248 54.5595C88.0291 54.8844 89.1335 55.3554 90.1389 55.9077C90.8806 56.3138 91.5894 56.8985 92.1498 57.532C93.0564 58.5391 93.0069 59.7248 92.1828 60.7968C91.4575 61.7552 90.5345 62.3724 89.2983 62.5673C85.5896 63.1683 82.0458 62.5186 78.6669 61.1217C75.189 59.6923 72.4364 57.1909 69.8815 54.5108C69.1728 53.7636 69.2222 53.4875 70.2112 53.0976C72.1561 52.3342 73.2605 50.8886 73.8704 48.9882C73.9857 48.6146 74.1506 48.241 74.3484 47.6725L74.3319 47.6562ZM108.303 32.4528C107.149 32.3066 105.995 32.1441 104.842 31.998C103.309 31.803 101.957 31.1858 100.754 30.2599C99.6165 29.3828 98.7594 28.2783 99.0232 26.7839C99.7154 22.7069 104.017 21.3263 106.572 22.983C107.792 23.7627 109.144 24.3475 110.429 25.0134C111.089 25.3545 111.83 25.5982 112.424 26.0205C114.88 27.8072 114.764 29.4965 112.424 31.1046C111.22 31.933 109.836 32.4527 108.287 32.469L108.303 32.4528ZM74.2659 31.9817C74.5956 31.9817 74.9747 31.9817 75.3373 32.0304C77.9581 32.339 79.524 33.7684 79.9031 36.3348C80.0514 37.3744 79.9525 38.4626 79.8536 39.5184C79.7547 40.6067 79.0954 41.4027 78.2218 42.0361C76.7549 43.0919 75.1231 43.027 73.4253 42.832C70.9199 42.5721 69.5354 41.094 68.8596 38.8687C68.4475 37.5206 68.6453 36.1562 69.2222 34.8892C69.9639 33.2487 71.1177 32.0954 73.0957 32.0629C73.4748 32.0629 73.8374 31.9979 74.2659 31.9654L74.2659 31.9817ZM84.5018 27.0276C86.8753 26.9464 88.6719 28.0021 89.5455 30.13C90.1554 31.5918 90.3037 33.1512 89.2159 34.4669C88.0621 35.8638 86.5127 36.5135 84.6501 36.01C84.1227 35.8638 83.6117 35.6851 83.1172 35.4739C80.8096 34.4344 79.7877 32.3716 80.3646 29.9189C80.7931 28.0834 81.8481 27.1738 83.7601 27.0276C84.0073 27.0114 84.2545 27.0276 84.5183 27.0276L84.5018 27.0276ZM66.8487 42.1173C70.821 42.4747 72.4364 45.2035 71.365 48.7932C70.8375 50.5962 68.5464 51.4571 66.7333 50.8236C65.1015 50.2551 63.9477 49.1668 63.206 47.6725C62.0357 45.301 64.1455 42.0686 66.8322 42.1011L66.8487 42.1173Z" fill="black"/>
</svg>
