<svg width="568" height="568" viewBox="0 0 568 568" fill="none" xmlns="http://www.w3.org/2000/svg">
<circle cx="284" cy="284" r="284" fill="#FAD2E0"/>
<path d="M235.6 388.05C221.133 388.05 207.6 384.433 195 377.2C182.633 370.2 173.183 358.533 166.65 342.2C163.85 335.433 161.75 328.433 160.35 321.2C159.183 313.733 158.6 306.383 158.6 299.15C158.6 283.517 161.05 267.883 165.95 252.25C171.083 236.383 177.967 221.45 186.6 207.45C195.467 193.45 205.267 181.083 216 170.35C226.967 159.383 238.4 150.75 250.3 144.45C262.433 138.15 274.217 135 285.65 135C294.75 135 303.267 137.217 311.2 141.65C313.067 142.817 314 143.867 314 144.8C314 145.5 313.417 146.083 312.25 146.55C311.083 147.017 309.8 147.017 308.4 146.55C305.6 145.617 302.1 145.15 297.9 145.15C287.867 145.15 277.367 148.533 266.4 155.3C255.433 162.067 244.7 171.283 234.2 182.95C223.933 194.383 214.6 207.333 206.2 221.8C197.8 236.267 191.033 251.317 185.9 266.95C181 282.35 178.55 297.4 178.55 312.1C178.55 320.967 179.6 329.483 181.7 337.65C186.133 353.05 193.017 364.133 202.35 370.9C211.917 377.667 222.767 381.05 234.9 381.05C245.4 381.05 256.483 378.717 268.15 374.05C279.817 369.383 291.017 362.967 301.75 354.8C318.783 341.967 332.783 327.85 343.75 312.45C354.95 296.817 363.233 280.717 368.6 264.15C374.2 247.35 377 230.9 377 214.8C377 199.4 374.433 184.817 369.3 171.05C364.4 157.05 356.933 144.683 346.9 133.95C337.1 123.217 324.85 114.817 310.15 108.75C295.683 102.45 279 99.3 260.1 99.3C256.367 99.3 252.517 99.5333 248.55 100C244.583 100.233 240.5 100.583 236.3 101.05C213.667 104.083 196.517 112.6 184.85 126.6C173.183 140.6 167.35 157.983 167.35 178.75C167.35 183.183 167.583 187.85 168.05 192.75C168.75 197.417 169.683 202.2 170.85 207.1C171.083 207.8 171.2 208.85 171.2 210.25C171.2 213.05 170.267 214.45 168.4 214.45C166.533 214.45 164.55 212.583 162.45 208.85C159.65 203.25 157.55 197.65 156.15 192.05C154.983 186.45 154.4 180.967 154.4 175.6C154.4 162.067 157.9 149.583 164.9 138.15C171.9 126.483 181.467 116.683 193.6 108.75C205.733 100.817 219.5 95.5667 234.9 93C242.367 91.8333 249.483 90.9 256.25 90.2C263.25 89.5 269.9 89.15 276.2 89.15C303.967 89.15 326.6 94.2833 344.1 104.55C361.833 114.583 374.9 128.117 383.3 145.15C391.7 162.183 395.9 180.85 395.9 201.15C395.9 221.217 392.05 241.633 384.35 262.4C376.883 283.167 366.15 302.65 352.15 320.85C338.383 338.817 322.05 354.1 303.15 366.7C292.883 373.467 281.8 378.717 269.9 382.45C258 386.183 246.567 388.05 235.6 388.05ZM359.15 495.85C338.617 495.85 320.65 493.517 305.25 488.85C290.083 484.183 276.783 478.117 265.35 470.65C254.15 463.183 244.233 455.25 235.6 446.85C226.967 438.683 218.917 430.867 211.45 423.4C203.983 415.933 196.4 409.867 188.7 405.2C181.233 400.533 172.95 398.2 163.85 398.2C159.65 398.2 154.867 399.6 149.5 402.4C144.367 405.433 141.567 409.517 141.1 414.65C140.867 417.45 139.933 418.85 138.3 418.85C136.2 418.85 135.15 417.1 135.15 413.6C135.15 410.333 136.433 406.717 139 402.75C141.567 398.783 144.95 395.283 149.15 392.25C153.583 389.217 158.483 387.7 163.85 387.7C174.35 387.7 184.033 389.567 192.9 393.3C201.767 397.267 210.4 402.283 218.8 408.35C227.433 414.65 236.3 421.533 245.4 429C254.5 436.467 264.417 443.817 275.15 451.05C286.117 458.517 298.483 465.283 312.25 471.35C326.017 477.417 341.767 482.2 359.5 485.7C362.533 486.167 365.333 486.517 367.9 486.75C370.7 487.217 373.5 487.45 376.3 487.45C387.967 487.45 396.483 484.883 401.85 479.75C407.45 474.85 410.25 468.9 410.25 461.9C410.25 455.133 407.917 448.133 403.25 440.9C398.817 433.9 392.283 427.6 383.65 422C375.017 416.633 364.633 413.017 352.5 411.15C350.633 410.683 349.233 409.983 348.3 409.05C347.367 408.117 346.9 407.183 346.9 406.25C346.9 404.383 348.417 403.567 351.45 403.8C366.15 406.133 378.517 410.217 388.55 416.05C398.817 422.117 406.633 428.883 412 436.35C417.367 444.05 420.05 451.633 420.05 459.1C420.05 468.9 415.15 477.417 405.35 484.65C395.55 492.117 380.15 495.85 359.15 495.85Z" fill="black"/>
</svg>
